<mxfile host="app.diagrams.net" modified="2021-06-02T17:03:28.185Z" agent="5.0 (Macintosh; Intel Mac OS X 10_15_7) AppleWebKit/537.36 (KHTML, like Gecko) Chrome/91.0.4472.77 Safari/537.36" etag="jVg-0ldUcYHiFqNBYd40" version="14.7.2" type="github">
  <diagram id="ZchLk-KhiFi6buuQg1I7" name="Page-1">
    <mxGraphModel dx="762" dy="855" grid="1" gridSize="10" guides="1" tooltips="1" connect="1" arrows="1" fold="1" page="1" pageScale="1" pageWidth="827" pageHeight="1169" math="0" shadow="0">
      <root>
        <mxCell id="0" />
        <mxCell id="1" parent="0" />
        <mxCell id="fyDUrhRCTVjrsPNfaAm0-12" style="edgeStyle=none;rounded=0;orthogonalLoop=1;jettySize=auto;html=1;exitX=0.5;exitY=1;exitDx=0;exitDy=0;entryX=0.5;entryY=0;entryDx=0;entryDy=0;" edge="1" parent="1" source="RjElgSxgtvQlfLAIb65S-2" target="fyDUrhRCTVjrsPNfaAm0-2">
          <mxGeometry relative="1" as="geometry" />
        </mxCell>
        <mxCell id="RjElgSxgtvQlfLAIb65S-2" value="&lt;span style=&quot;font-size: 24px&quot;&gt;应用程序&lt;/span&gt;" style="rounded=1;whiteSpace=wrap;html=1;strokeWidth=2;fillWeight=4;hachureGap=8;hachureAngle=45;sketch=1;" parent="1" vertex="1">
          <mxGeometry x="220" y="160" width="170" height="60" as="geometry" />
        </mxCell>
        <mxCell id="fyDUrhRCTVjrsPNfaAm0-8" style="rounded=0;orthogonalLoop=1;jettySize=auto;html=1;entryX=0.5;entryY=0;entryDx=0;entryDy=0;" edge="1" parent="1" source="fyDUrhRCTVjrsPNfaAm0-2" target="fyDUrhRCTVjrsPNfaAm0-7">
          <mxGeometry relative="1" as="geometry" />
        </mxCell>
        <mxCell id="fyDUrhRCTVjrsPNfaAm0-9" style="edgeStyle=none;rounded=0;orthogonalLoop=1;jettySize=auto;html=1;exitX=0.75;exitY=1;exitDx=0;exitDy=0;entryX=0.5;entryY=0;entryDx=0;entryDy=0;" edge="1" parent="1" source="fyDUrhRCTVjrsPNfaAm0-2" target="fyDUrhRCTVjrsPNfaAm0-5">
          <mxGeometry relative="1" as="geometry" />
        </mxCell>
        <mxCell id="fyDUrhRCTVjrsPNfaAm0-2" value="&lt;span style=&quot;font-size: 24px&quot;&gt;JDBC&lt;/span&gt;" style="rounded=1;whiteSpace=wrap;html=1;strokeWidth=2;fillWeight=4;hachureGap=8;hachureAngle=45;sketch=1;" vertex="1" parent="1">
          <mxGeometry x="155" y="260" width="300" height="40" as="geometry" />
        </mxCell>
        <mxCell id="fyDUrhRCTVjrsPNfaAm0-4" value="&lt;span style=&quot;font-size: 24px&quot;&gt;Oracle数据库&lt;/span&gt;" style="rounded=1;whiteSpace=wrap;html=1;strokeWidth=2;fillWeight=4;hachureGap=8;hachureAngle=45;sketch=1;" vertex="1" parent="1">
          <mxGeometry x="400" y="470" width="170" height="60" as="geometry" />
        </mxCell>
        <mxCell id="fyDUrhRCTVjrsPNfaAm0-10" style="edgeStyle=none;rounded=0;orthogonalLoop=1;jettySize=auto;html=1;exitX=0.5;exitY=1;exitDx=0;exitDy=0;entryX=0.5;entryY=0;entryDx=0;entryDy=0;" edge="1" parent="1" source="fyDUrhRCTVjrsPNfaAm0-5" target="fyDUrhRCTVjrsPNfaAm0-4">
          <mxGeometry relative="1" as="geometry" />
        </mxCell>
        <mxCell id="fyDUrhRCTVjrsPNfaAm0-5" value="&lt;span style=&quot;font-size: 24px&quot;&gt;Oracle驱动&lt;/span&gt;" style="rounded=1;whiteSpace=wrap;html=1;strokeWidth=2;fillWeight=4;hachureGap=8;hachureAngle=45;sketch=1;" vertex="1" parent="1">
          <mxGeometry x="400" y="370" width="170" height="60" as="geometry" />
        </mxCell>
        <mxCell id="fyDUrhRCTVjrsPNfaAm0-6" value="&lt;span style=&quot;font-size: 24px&quot;&gt;Mysql数据库&lt;/span&gt;" style="rounded=1;whiteSpace=wrap;html=1;strokeWidth=2;fillWeight=4;hachureGap=8;hachureAngle=45;sketch=1;" vertex="1" parent="1">
          <mxGeometry x="90" y="470" width="170" height="60" as="geometry" />
        </mxCell>
        <mxCell id="fyDUrhRCTVjrsPNfaAm0-11" style="edgeStyle=none;rounded=0;orthogonalLoop=1;jettySize=auto;html=1;exitX=0.5;exitY=1;exitDx=0;exitDy=0;entryX=0.5;entryY=0;entryDx=0;entryDy=0;" edge="1" parent="1" source="fyDUrhRCTVjrsPNfaAm0-7" target="fyDUrhRCTVjrsPNfaAm0-6">
          <mxGeometry relative="1" as="geometry" />
        </mxCell>
        <mxCell id="fyDUrhRCTVjrsPNfaAm0-7" value="&lt;span style=&quot;font-size: 24px&quot;&gt;Mysql驱动&lt;/span&gt;" style="rounded=1;whiteSpace=wrap;html=1;strokeWidth=2;fillWeight=4;hachureGap=8;hachureAngle=45;sketch=1;" vertex="1" parent="1">
          <mxGeometry x="90" y="370" width="170" height="60" as="geometry" />
        </mxCell>
        <mxCell id="fyDUrhRCTVjrsPNfaAm0-13" value="&lt;font style=&quot;font-size: 18px&quot;&gt;.........&lt;/font&gt;" style="text;html=1;resizable=0;autosize=1;align=center;verticalAlign=middle;points=[];fillColor=none;strokeColor=none;rounded=0;" vertex="1" parent="1">
          <mxGeometry x="290" y="390" width="60" height="20" as="geometry" />
        </mxCell>
        <mxCell id="fyDUrhRCTVjrsPNfaAm0-14" value="&lt;font style=&quot;font-size: 18px&quot;&gt;.........&lt;/font&gt;" style="text;html=1;resizable=0;autosize=1;align=center;verticalAlign=middle;points=[];fillColor=none;strokeColor=none;rounded=0;" vertex="1" parent="1">
          <mxGeometry x="290" y="490" width="60" height="20" as="geometry" />
        </mxCell>
        <mxCell id="fyDUrhRCTVjrsPNfaAm0-15" value="&lt;font style=&quot;font-size: 18px&quot;&gt;开发人员需要掌握的API&lt;/font&gt;" style="text;html=1;align=center;verticalAlign=middle;resizable=0;points=[];autosize=1;strokeColor=none;" vertex="1" parent="1">
          <mxGeometry x="455" y="270" width="210" height="20" as="geometry" />
        </mxCell>
        <mxCell id="fyDUrhRCTVjrsPNfaAm0-17" value="&lt;font style=&quot;font-size: 18px&quot;&gt;数据库厂商提供的&lt;br&gt;开发人员导入即可&lt;/font&gt;" style="text;html=1;align=center;verticalAlign=middle;resizable=0;points=[];autosize=1;strokeColor=none;" vertex="1" parent="1">
          <mxGeometry x="590" y="380" width="160" height="40" as="geometry" />
        </mxCell>
      </root>
    </mxGraphModel>
  </diagram>
</mxfile>
